<svg id="XMLID_773_" xmlns="http://www.w3.org/2000/svg" width="60" height="60.013" viewBox="0 0 60 60.013">
  <g id="XMLID_1418_">
    <path id="XMLID_1419_" d="M437.372,251.327a.965.965,0,0,1,1.5-.438,1.6,1.6,0,0,1,.346,1.894,30.406,30.406,0,0,0-3.032,13.408,28.828,28.828,0,0,0,5.974,18.051,1.642,1.642,0,0,1,.011,1.944.936.936,0,0,1-1.538.014,31.953,31.953,0,0,1-6.622-20.008A33.709,33.709,0,0,1,437.372,251.327Z" transform="translate(-434.01 -226.582)" fill="#df71df"/>
    <path id="XMLID_1423_" d="M11.385,21.161A22.055,22.055,0,0,0,2.65,24.174a1.2,1.2,0,0,1-1.636-.386,1.162,1.162,0,0,1,.391-1.612,24.509,24.509,0,0,1,11.739-3.509,10.438,10.438,0,0,1-.2-7.756,1.191,1.191,0,0,1,1.268-.764A10.778,10.778,0,0,1,21.1,13.834l2.54-12.04a2.293,2.293,0,0,1,4.476,0l2.72,12.9A8.527,8.527,0,0,1,37.9,11.015a4.272,4.272,0,1,1,0,8.543h-.061a27.326,27.326,0,0,0,8.75,1.431h0a4.065,4.065,0,0,1,4.088,4.03v3.037a4.065,4.065,0,0,1-4.088,4.03h0a15.711,15.711,0,0,0-10.1,3.671,14.233,14.233,0,0,1-9.151,3.325,11.237,11.237,0,0,1-3.217-.467,14.179,14.179,0,0,0,5.61,9.222,16.5,16.5,0,0,1,6.543,10.823,1.175,1.175,0,0,1-1,1.333,1.225,1.225,0,0,1-.178.013,1.184,1.184,0,0,1-1.175-1,14.175,14.175,0,0,0-5.621-9.3A16.488,16.488,0,0,1,21.6,37.506a11.1,11.1,0,0,1-2.079-1.612,1.16,1.16,0,0,1,0-1.658,1.2,1.2,0,0,1,1.682,0,8.674,8.674,0,0,0,6.128,2.5,11.831,11.831,0,0,0,7.607-2.764,18.113,18.113,0,0,1,11.645-4.232h0A1.7,1.7,0,0,0,48.3,28.057V27.71h-.505a1.172,1.172,0,1,1,0-2.344H48.3V25.02a1.7,1.7,0,0,0-1.711-1.686h0A29.729,29.729,0,0,1,35.673,21.27a24.638,24.638,0,0,0-9.045-1.711H23.583c.015.134.027.268.037.4a1.189,1.189,0,0,1-2.373.158,8.1,8.1,0,0,0-1.215-3.752,8.351,8.351,0,0,0-5.136-3.714,8.137,8.137,0,0,0,1.014,6.2,8.287,8.287,0,0,0,1.9,2.133,1.161,1.161,0,0,1,.182,1.648,1.2,1.2,0,0,1-1.672.179A10.626,10.626,0,0,1,14.771,21.3,34.044,34.044,0,0,0,4.254,58.465a1.169,1.169,0,0,1-.746,1.486,1.2,1.2,0,0,1-.381.062A1.189,1.189,0,0,1,2,59.215a36.348,36.348,0,0,1,9.385-38.054ZM25.88,2.7,24.422,9.616l3.683,3.63ZM39.852,15.287A1.944,1.944,0,0,0,37.9,13.359a6.131,6.131,0,0,0-5.718,3.813l-.017.042H37.9A1.944,1.944,0,0,0,39.852,15.287ZM28.767,17.214l-4.924-4.853-.94,4.457q.078.2.148.4Z" transform="translate(9.325 0)" fill="#df71df"/>
    <path id="XMLID_1440_" d="M179.57,210.04a.941.941,0,0,0,1.549,0,.936.936,0,0,1,1.538,0,1.642,1.642,0,0,1,0,1.944,2.813,2.813,0,0,1-4.625,0,1.642,1.642,0,0,1,0-1.944A.936.936,0,0,1,179.57,210.04Z" transform="translate(-143.957 -185.291)" fill="#df71df"/>
    <path id="XMLID_1443_" d="M435.538,218.269a.991.991,0,0,1-.769-.4,1.641,1.641,0,0,1,0-1.943.935.935,0,0,1,1.538,0,1.641,1.641,0,0,1,0,1.943A.991.991,0,0,1,435.538,218.269Z" transform="translate(-428.201 -190.435)" fill="#df71df"/>
  </g>
</svg>
