<svg id="race" xmlns="http://www.w3.org/2000/svg" width="124.219" height="48.04" viewBox="0 0 124.219 48.04">
  <path id="Path_15" data-name="Path 15" d="M104.345,45.663V44.01a11.549,11.549,0,0,0-9.669-11.433c-.018,0-.035,0-.053,0s-.035-.015-.053-.017L76.88,30.818C74.351,28.682,60.286,17.5,43.054,17.5c-17.064,0-31.01,9.639-33.663,11.6H7.919l-.828-3.3H8.281a1.656,1.656,0,0,0,1.656-1.656V19.165a1.656,1.656,0,0,0-1.656-1.656H1.656A1.656,1.656,0,0,0,0,19.165v4.969A1.656,1.656,0,0,0,1.656,25.79H3.677l.828,3.3H1.656A1.656,1.656,0,0,0,0,30.75V50.632c0,.04.02.073.023.111a1.538,1.538,0,0,0,.068.335,1.45,1.45,0,0,0,.1.288,1.42,1.42,0,0,0,.167.248,1.636,1.636,0,0,0,.232.258c.03.025.043.06.075.083L7.3,56.924a1.606,1.606,0,0,0,.219.113,1.631,1.631,0,0,0,.192.1,1.611,1.611,0,0,0,.581.118h2.377a12.4,12.4,0,0,0,23.4,0H71.948a12.4,12.4,0,0,0,23.4,0h9A1.655,1.655,0,0,0,106,55.6V47.318a1.655,1.655,0,0,0-1.655-1.655ZM3.313,20.821H6.625v1.656H3.313ZM71.29,30.752H41.413v-9.88c.547-.022,1.088-.063,1.641-.063C55.143,20.809,65.848,26.966,71.29,30.752ZM25.723,24.175A52.782,52.782,0,0,1,38.1,21.127v8.7ZM22.359,62.226a9.109,9.109,0,1,1,9.109-9.109A9.121,9.121,0,0,1,22.359,62.226Zm61.28,0a9.109,9.109,0,1,1,9.109-9.109A9.121,9.121,0,0,1,83.639,62.226Zm0-21.531A12.435,12.435,0,0,0,71.217,53.116c0,.28.025.553.041.828H34.738c.018-.275.041-.548.041-.828a12.421,12.421,0,1,0-24.842,0c0,.28.025.553.041.828H8.838L3.313,49.8v-17.4H9.941a1.643,1.643,0,0,0,.2-.041,1.584,1.584,0,0,0,.326-.066,1.718,1.718,0,0,0,.308-.152,1.5,1.5,0,0,0,.179-.089,60.506,60.506,0,0,1,10.6-6.141l17.51,8c.008,0,.015,0,.023,0a1.6,1.6,0,0,0,.644.139c.007,0,.015,0,.022,0h36.29l18.1,1.784a8.247,8.247,0,0,1,6.883,8.162v1.653h0a1.656,1.656,0,1,0,0,3.313h1.656v4.969H96.019c.018-.275.041-.548.041-.828A12.435,12.435,0,0,0,83.639,40.694Z" transform="translate(18.219 -17.497)" fill="#8db702"/>
  <path id="Path_16" data-name="Path 16" d="M15.8,35.5a5.8,5.8,0,1,0,5.8,5.8A5.8,5.8,0,0,0,15.8,35.5Zm0,8.281A2.484,2.484,0,1,1,18.281,41.3,2.487,2.487,0,0,1,15.8,43.784Z" transform="translate(24.781 -5.681)" fill="#8db702"/>
  <path id="Path_17" data-name="Path 17" d="M52.792,35.5a5.8,5.8,0,1,0,5.8,5.8A5.8,5.8,0,0,0,52.792,35.5Zm0,8.281A2.484,2.484,0,1,1,55.276,41.3,2.487,2.487,0,0,1,52.792,43.784Z" transform="translate(49.06 -5.681)" fill="#8db702"/>
  <path id="Path_19" data-name="Path 19" d="M45.281,30.5H38.656a1.656,1.656,0,0,0,0,3.313h6.625a1.656,1.656,0,0,0,0-3.312Z" transform="translate(42.5 -8.962)" fill="#8db702"/>
  <path id="Path_20" data-name="Path 20" d="M45.281,33.5H38.656a1.656,1.656,0,0,0,0,3.313h6.625a1.656,1.656,0,0,0,0-3.312Z" transform="translate(42.5 -6.992)" fill="#8db702"/>
  <path id="Path_21" data-name="Path 21" d="M29.281,30.5H22.656a1.656,1.656,0,1,0,0,3.313h6.625a1.656,1.656,0,1,0,0-3.312Z" transform="translate(47 -8.962)" fill="#8db702"/>
  <path id="Path_22" data-name="Path 22" d="M29.281,33.5H22.656a1.656,1.656,0,0,0,0,3.313h6.625a1.656,1.656,0,1,0,0-3.312Z" transform="translate(47 -6.992)" fill="#8db702"/>
  <path id="Path_23" data-name="Path 23" d="M29.281,30.5H22.656a1.656,1.656,0,1,0,0,3.313h6.625a1.656,1.656,0,1,0,0-3.312Z" transform="translate(-21 -8.962)" fill="#8db702"/>
  <path id="Path_24" data-name="Path 24" d="M29.281,33.5H22.656a1.656,1.656,0,0,0,0,3.313h6.625a1.656,1.656,0,1,0,0-3.312Z" transform="translate(-21 -6.992)" fill="#8db702"/>
</svg>
