<svg id="bike" xmlns="http://www.w3.org/2000/svg" width="80" height="47.488" viewBox="0 0 80 47.488">
  <g id="Group_43" data-name="Group 43">
    <g id="Group_42" data-name="Group 42">
      <path id="Path_1" data-name="Path 1" d="M78.2,127.878a16.235,16.235,0,0,0-19.526-7.98L52.02,106.585H62.493a1.249,1.249,0,1,1,0,2.5h-5a1.249,1.249,0,0,0,0,2.5h5a3.748,3.748,0,1,0,0-7.5H50a1.249,1.249,0,0,0-1.125,1.808l1.6,3.19H28.28l-1.249-2.5h6.725a1.249,1.249,0,1,0,0-2.5H21.261a1.249,1.249,0,1,0,0,2.5h2.976l1.874,3.748L21.328,119.9a16.243,16.243,0,1,0,11.114,16.673H40a1.238,1.238,0,0,0,.3-.039l.026-.006c.029-.008.054-.024.082-.032a1.324,1.324,0,0,0,.149-.054c.008,0,.011-.01.017-.014s.035-.018.051-.028a1.248,1.248,0,0,0,.1-.076,1.333,1.333,0,0,0,.152-.125l.049-.05c.019-.021.03-.045.047-.067a1.209,1.209,0,0,0,.082-.1c.01-.017.015-.037.024-.055s.023-.027.031-.044L52.5,113.127l3.873,7.747A16.213,16.213,0,1,0,78.2,127.878ZM16.263,149.066A13.744,13.744,0,1,1,20.2,122.159l-6.3,12.6a1.249,1.249,0,0,0,1.118,1.808h14.93A13.757,13.757,0,0,1,16.263,149.066Zm.772-14.993L22.522,123.1a13.753,13.753,0,0,1,7.422,10.971Zm15.407,0a16.243,16.243,0,0,0-8.807-13.2l3.873-7.747,10.473,20.951ZM40,132.528,29.53,111.583H50.475Zm27.713,15.957A13.739,13.739,0,0,1,57.484,123.1l6.39,12.779a1.25,1.25,0,1,0,2.237-1.117l-6.3-12.6a13.744,13.744,0,0,1,7.908,26.326Z" transform="translate(0 -104.086)" fill="#a8aeb6"/>
    </g>
  </g>
</svg>
