<svg id="rocket" xmlns="http://www.w3.org/2000/svg" width="60.38" height="60.028" viewBox="0 0 60.38 60.028">
  <g id="Group_65" data-name="Group 65" transform="translate(0 57.577)">
    <g id="Group_64" data-name="Group 64" transform="translate(0)">
      <circle id="Ellipse_2" data-name="Ellipse 2" cx="1.226" cy="1.226" r="1.226" fill="#5ba6f0"/>
    </g>
  </g>
  <g id="Group_67" data-name="Group 67" transform="translate(30.263 27.532)">
    <g id="Group_66" data-name="Group 66">
      <circle id="Ellipse_3" data-name="Ellipse 3" cx="1.223" cy="1.223" r="1.223" fill="#5ba6f0"/>
    </g>
  </g>
  <g id="Group_69" data-name="Group 69" transform="translate(38.138 12.186)">
    <g id="Group_68" data-name="Group 68">
      <path id="Path_12" data-name="Path 12" d="M334.436,107.041a5.2,5.2,0,1,0,0,7.363A5.171,5.171,0,0,0,334.436,107.041Zm-1.73,5.633a2.76,2.76,0,1,1,0-3.9A2.763,2.763,0,0,1,332.706,112.674Z" transform="translate(-325.551 -105.516)" fill="#5ba6f0"/>
    </g>
  </g>
  <g id="Group_71" data-name="Group 71" transform="translate(3.941 44.204)">
    <g id="Group_70" data-name="Group 70">
      <path id="Path_13" data-name="Path 13" d="M43.687,384.373a1.223,1.223,0,0,0-1.64.55l-1.457,2.926a4.037,4.037,0,0,1-3.325,2.22l-1.694.116a.725.725,0,0,1-.773-.773l.116-1.694a4.037,4.037,0,0,1,2.22-3.326l2.926-1.457a1.223,1.223,0,0,0-1.09-2.19L36.043,382.2a6.492,6.492,0,0,0-3.57,5.348l-.116,1.694a3.171,3.171,0,0,0,3.163,3.388c.072,0,.144,0,.217-.007l1.694-.116a6.491,6.491,0,0,0,5.348-3.57l1.457-2.926A1.223,1.223,0,0,0,43.687,384.373Z" transform="translate(-32.35 -380.616)" fill="#5ba6f0"/>
    </g>
  </g>
  <g id="Group_73" data-name="Group 73" transform="translate(0.002)">
    <g id="Group_72" data-name="Group 72" transform="translate(0 0)">
      <path id="Path_14" data-name="Path 14" d="M59.579,2.281a2.741,2.741,0,0,0-2.1-.783l-1.1.07A35.723,35.723,0,0,0,31,14.659L28.4,17.854l-6.791-.2h-.035A20.031,20.031,0,0,0,7.32,23.559L.365,30.515a1.184,1.184,0,0,0,.776,2.02l14.723.756-.6.739a1.184,1.184,0,0,0-.121,1.312q.346.636.725,1.252l-3.491,4.145a1.185,1.185,0,0,0-.165,1.269,15.416,15.416,0,0,0,7.4,7.4,1.184,1.184,0,0,0,1.252-.151c.752-.61,1.619-1.334,2.458-2.034.6-.5,1.209-1.009,1.781-1.48q.512.308,1.037.6a1.184,1.184,0,0,0,1.292-.1l.807-.626L29,60.4a1.184,1.184,0,0,0,2.019.776l6.955-6.955A20.031,20.031,0,0,0,43.88,39.959V33.473l2.744-2.129a35.581,35.581,0,0,0,13.74-26.4l.028-.576A2.743,2.743,0,0,0,59.579,2.281ZM3.922,30.306l5.072-5.072A17.679,17.679,0,0,1,21.56,20.022l4.963.146L17.713,31.015Zm17.884,15.1c-.618.516-1.252,1.044-1.84,1.528a13.007,13.007,0,0,1-5.275-5.27l2.556-3.035a27.45,27.45,0,0,0,2.533,2.939l0,0h0a27.45,27.45,0,0,0,3.26,2.8C22.636,44.715,22.218,45.064,21.806,45.407Zm19.706-5.449A17.678,17.678,0,0,1,36.3,52.542l-5.072,5.072L30.52,43.841l10.992-8.53v4.648ZM58,4.828A33.216,33.216,0,0,1,45.173,29.473L26.6,43.883a25.071,25.071,0,0,1-4.289-3.166l6.26-6.26A1.184,1.184,0,1,0,26.9,32.782l-6.255,6.255A25.067,25.067,0,0,1,17.61,34.9L32.836,16.152A33.347,33.347,0,0,1,56.529,3.932l1.1-.07a.373.373,0,0,1,.4.391Z" transform="translate(-0.018 -1.492)" fill="#5ba6f0"/>
    </g>
  </g>
</svg>
